<svg width="36" height="36" viewBox="0 0 36 36" fill="none" xmlns="http://www.w3.org/2000/svg">
<circle cx="18" cy="18" r="18" fill="#00AEEF"/>
<g clip-path="url(#clip0_2670_77372)">
<path d="M30.0615 13.9519C30.1794 15.1834 30.1213 16.2139 30.0407 17.1438C29.9055 18.7021 29.6455 19.6346 29.2702 20.633C28.8828 21.667 28.4088 22.6532 27.9 23.4861L27.8697 23.5364C27.7068 23.8024 27.5872 23.9974 27.5196 24.0884C27.5083 24.0754 27.4953 24.0616 27.4806 24.046C27.419 23.9818 27.3272 23.8856 27.185 23.7444C26.977 23.5364 26.3946 22.7754 26.2308 22.5414C26.0861 22.3369 25.768 21.8533 25.5956 21.4867L25.5072 21.2986L25.3442 21.4269C25.1709 21.5647 25.0695 21.8039 25.0738 22.0691C25.0773 22.3022 25.131 22.5726 25.2723 23.0666C25.4274 23.6057 25.6987 24.2496 26.0142 24.8329C26.0523 24.9048 26.0913 24.975 26.1277 25.04C26.3452 25.43 26.4293 25.6094 26.3262 25.684C26.3097 25.6961 26.2898 25.6978 26.2785 25.6978C26.1494 25.6978 25.9119 25.5748 25.6415 25.3685C25.4014 25.1856 24.7584 24.6414 23.9792 23.5537C23.3916 22.7304 22.9254 21.9322 22.4669 20.965L22.3993 20.8228C22.3993 20.8228 22.3005 20.8575 22.2095 20.9138C22.1454 20.9528 22.0916 20.9988 22.0544 21.0672C21.9651 21.2276 21.9365 21.439 21.9668 21.68C22.0379 22.2589 22.3776 23.1429 22.6515 23.7808C23.1143 24.858 23.9654 26.0696 24.598 26.8964C24.6223 26.9285 24.6518 26.9623 24.6812 26.997C24.7142 27.0368 24.7705 27.1018 24.7982 27.1452C24.7428 27.2015 24.6136 27.3064 24.4576 27.4355L24.2245 27.6253C23.3726 28.3273 22.5406 28.8924 21.5292 29.4574C20.7388 29.8994 19.1302 30.7158 18.0642 31.001C16.9974 30.7158 15.3897 29.8994 14.5993 29.4574C13.5758 28.8863 12.7698 28.3377 11.9031 27.6253L11.6639 27.4303C11.5079 27.3029 11.3796 27.1972 11.3268 27.1426C11.3519 27.1114 11.5044 26.9285 11.5296 26.8973C12.1614 26.0722 13.0124 24.8615 13.4761 23.7816C13.7491 23.1446 14.0906 22.2632 14.1625 21.68C14.1928 21.439 14.1625 21.2284 14.0741 21.069C14.029 20.9875 13.9536 20.9199 13.8739 20.8852L13.7292 20.8246L13.6616 20.9667C13.2031 21.933 12.736 22.7321 12.1492 23.5554C11.3727 24.6422 10.7288 25.1865 10.4878 25.3702C10.2218 25.5739 9.97823 25.6996 9.85083 25.6996C9.83956 25.6996 9.81963 25.6987 9.81009 25.6909L9.78669 25.6718C9.70869 25.5895 9.79709 25.4092 10.0034 25.0392C10.0398 24.9733 10.077 24.9057 10.116 24.8346C10.4315 24.2505 10.701 23.6066 10.8562 23.0692C10.9983 22.5735 11.052 22.3031 11.0555 22.0708C11.0598 21.8065 10.9584 21.5664 10.7842 21.4286L10.6213 21.3004L10.5338 21.4884C10.3734 21.8308 10.0658 22.3066 9.89849 22.5432C9.73296 22.778 9.14969 23.5407 8.94429 23.7461C8.80216 23.8882 8.71029 23.9844 8.64876 24.0494C8.63403 24.065 8.62103 24.078 8.60976 24.0902C8.54043 23.9966 8.41476 23.792 8.24316 23.5121C7.71969 22.6558 7.24563 21.6696 6.85909 20.6356C6.48383 19.6364 6.22383 18.7038 6.08863 17.1464C6.00716 16.2113 5.94823 15.1765 6.06783 13.9519C6.18829 12.7022 6.50116 11.5226 6.94923 10.63C7.58189 9.36724 8.37056 8.6193 9.35856 8.34197C9.60643 8.27264 9.99209 8.1903 10.428 8.1903C11.2132 8.1903 11.8398 8.44857 12.2914 8.95817C12.5418 9.23897 12.6398 9.6671 12.5427 10.0484C12.4552 10.3908 12.2151 10.6135 11.8953 10.7634C11.813 10.8024 11.7185 10.8258 11.7185 10.8258C11.7185 10.8258 11.7289 10.87 11.813 11.007C12.1284 11.5157 12.7429 11.7826 13.587 11.7826C13.7838 11.7826 13.9892 11.7679 14.1972 11.7393C15.3984 11.572 15.9392 10.8137 16.1368 9.35337C16.2139 8.7831 16.2876 8.30384 15.9201 7.71104C15.6627 7.29504 14.9278 7.04977 14.3904 7.0515C13.9094 7.0541 13.6555 7.1789 13.5021 7.33924C13.4952 7.31584 13.4614 7.27597 13.4527 7.2543C13.3981 7.1243 13.3496 6.97697 13.3972 6.7135C13.4536 6.4015 13.7014 6.10944 13.8323 6.0063C14.1122 5.78184 14.4286 5.56864 14.9408 5.46117C15.1834 5.41004 15.4391 5.3641 15.726 5.3641C15.7866 5.3641 15.9903 5.36324 16.0813 5.37017C16.1212 5.37277 16.1272 5.35544 16.1558 5.3199C16.3318 5.10757 16.6082 4.99144 17.1118 5.0027C17.4992 5.01137 18.0157 5.0313 18.4222 5.1613C18.7836 5.27744 18.9664 5.38837 19.177 5.5253C19.4214 5.68304 19.6754 6.0141 19.7837 6.32957C19.9449 6.80017 20.0376 7.38604 20.0619 8.0629C20.0896 9.41144 20.2812 10.2304 20.659 10.7184C21.2683 11.5053 21.7892 11.67 22.4184 11.7098L22.4868 11.7107C23.675 11.7107 24.1084 11.3346 24.3016 11.0477C24.3016 11.0477 24.4065 10.9004 24.4498 10.8163C24.299 10.7886 24.2028 10.753 24.2028 10.753C23.9004 10.6395 23.6863 10.3977 23.5988 10.0718C23.4939 9.68357 23.5884 9.25804 23.8432 8.96164C24.4065 8.3073 25.2454 8.2007 25.6944 8.19464H25.7455C26.0974 8.19464 26.4406 8.24664 26.7656 8.34977C27.2084 8.4893 27.5915 8.68604 27.9052 8.93477C28.5214 9.4279 28.9106 10.1013 29.1801 10.6317C29.6221 11.4984 29.9523 12.7412 30.0615 13.9519Z" fill="white"/>
</g>
<defs>
<clipPath id="clip0_2670_77372">
<rect width="24.1289" height="26" fill="white" transform="translate(6 5)"/>
</clipPath>
</defs>
</svg>
