<svg width="36" height="36" viewBox="0 0 36 36" fill="none" xmlns="http://www.w3.org/2000/svg">
<circle cx="18" cy="18" r="18" fill="#232452"/>
<path d="M23.1222 19.1385C26.2501 19.1385 29.0008 21.4115 28.4326 24.7305C27.9599 27.2901 25.6818 28.9999 23.1222 28.9999H7.75934C7.37716 28.9999 7 28.6177 7 28.2406V19.8023C7 19.4201 7.37716 19.043 7.75934 19.043H23.1222V19.1385Z" fill="white"/>
<path d="M23.1222 7C26.2501 7 29.0964 9.65519 28.4326 12.8786C27.9599 15.3427 25.6818 17.0525 23.1222 17.0525H7.75934C7.37716 17.0525 7 16.6703 7 16.2931V7.75934C7 7.37716 7.37716 7 7.75934 7H23.1222Z" fill="white"/>
<path d="M18.7539 14.2058V12.6871C18.7539 12.1189 19.4177 11.7367 19.8904 12.0233L29.4702 17.4292C29.9429 17.7159 29.9429 18.4702 29.4702 18.7568L19.8954 24.1628C19.4227 24.4494 18.7589 24.0672 18.7589 23.499V14.2058H18.7539Z" fill="#ADAFB2"/>
</svg>
