<svg width="36" height="36" viewBox="0 0 36 36" fill="none" xmlns="http://www.w3.org/2000/svg">
<path d="M12.0782 10.0554C11.1987 10.9349 10.3192 11.8143 9.46906 12.7524C12.2248 15.7427 15.0684 18.6743 17.9707 21.5179C20.873 18.6743 23.7459 15.7427 26.4723 12.7524C25.6222 11.8143 24.7427 10.9642 23.8632 10.0847C21.8697 11.9609 19.9055 13.8371 17.9707 15.772C16.0651 13.8664 14.101 11.9316 12.0782 10.0554ZM14.8339 7.65147C15.9186 8.53095 16.9739 9.46906 18.0293 10.4072C19.0554 9.46906 20.1108 8.53095 21.1954 7.65147C20.1694 6.80131 19.114 5.95114 18 5.18892C16.886 5.95114 15.8306 6.77199 14.8339 7.65147ZM7.12378 15.4495C6.44951 16.2997 5.80456 17.1498 5.18893 18.0586C8.70684 22.9544 13.0749 27.2932 18 30.7524C22.8958 27.2638 27.2638 22.9544 30.7524 18.0293C30.1661 17.1498 29.5212 16.2997 28.8469 15.4495C25.5928 19.4951 21.9283 23.2182 18.0293 26.6482C14.0717 23.2182 10.4072 19.5244 7.12378 15.4495ZM2.16938 18C2.14007 9.46905 9.32248 2.16938 17.8827 2.14006C26.443 2.14006 33.6547 9.46905 33.6254 18C33.6254 26.5309 26.443 33.8306 17.8827 33.8306C9.35179 33.8306 2.16938 26.5309 2.16938 18ZM0 18C0 8.06189 8.03257 0 17.9121 0C27.7915 0 35.8241 8.06189 35.8241 18C35.8241 27.9381 27.7915 36 17.9121 36C8.00326 36 0 27.9381 0 18ZM1.20195 18C1.20195 27.2638 8.67752 34.7687 17.8827 34.7687C27.0879 34.7687 34.5635 27.2638 34.5635 18C34.5635 8.73616 27.0879 1.23127 17.8827 1.23127C8.67752 1.20195 1.20195 8.73616 1.20195 18Z" fill="#BA8C60"/>
</svg>
