<svg width="36" height="36" viewBox="0 0 36 36" fill="none" xmlns="http://www.w3.org/2000/svg">
<circle cx="18" cy="18" r="17.5" fill="#F0F1F1" stroke="#231815"/>
<path d="M32.304 17.9997C32.304 11.7605 26.1084 6.69531 18.4997 6.69531C10.891 6.69531 4.69531 11.7605 4.69531 17.9997C4.69531 24.2388 10.891 29.304 18.4997 29.304C26.1084 29.304 32.304 24.2388 32.304 17.9997Z" fill="#F0F1F1"/>
<path d="M16.0871 10.0215C15.0436 11.2824 16.2176 12.4997 16.3263 13.8911C16.4132 15.0432 15.935 16.0432 15.6523 16.4997C15.8045 16.5867 16.935 16.8258 17.6741 16.1302C18.3915 15.478 18.0002 14.3693 18.0002 14.3693C18.5871 14.9563 18.5002 16.1737 17.848 16.8258C18.9132 16.7389 19.848 16.0215 19.848 14.978C19.848 14.3911 19.6306 14.065 19.6306 14.065C20.348 14.4997 20.3697 15.6519 20.0436 16.1737C20.1741 16.1737 21.2828 15.6302 21.261 14.4563C21.2176 12.6302 19.0654 13.1519 17.9132 12.0432C17.2828 11.4345 17.3915 10.5867 17.3915 10.5867C16.5219 10.565 16.0871 10.0215 16.0871 10.0215Z" fill="#231815"/>
<path d="M21.412 13.3901C22.0859 14.4988 21.8251 16.8901 20.5859 18.1727C21.2816 18.1292 22.0859 17.8684 22.3468 17.7379L22.1729 18.064C22.1729 18.064 22.7816 18.1945 23.6946 18.064C24.6729 17.9336 25.3903 17.564 25.6946 17.8684C25.9772 18.1727 25.6512 18.6075 25.3251 18.6727C25.6294 18.8249 26.8903 18.7379 26.999 17.8466L27.2598 18.2379C27.2598 18.2379 27.499 17.9119 27.4555 17.5858C27.3685 16.8032 26.2816 16.4553 25.5642 16.9553C23.412 16.5205 22.499 15.8249 22.1729 15.6075C22.6077 15.6292 23.3685 15.4771 23.8903 15.1727C23.912 15.3466 23.8685 15.5423 23.8685 15.5423C24.6946 15.2597 25.6077 14.0206 25.9555 12.9988C26.2381 13.064 26.4338 13.3466 26.4772 13.651C26.7816 13.4119 27.2381 12.6727 26.4555 12.1075L27.1729 12.2597C27.1729 11.8032 26.6512 11.4336 26.1294 11.4336C25.5642 11.4336 24.9772 11.8249 24.9772 12.7814C23.6512 13.9553 21.6946 13.4336 21.412 13.3901Z" fill="#231815"/>
<path d="M17.5 19.6081C17.5 19.6081 18.3696 20.369 18.3696 21.5864C18.3696 21.5864 19.5652 21.4342 19.5 22.4342C19.4348 23.2385 18.413 23.4994 18.413 23.4994C18.7391 24.369 20.1087 25.6516 22.0435 26.0211C22.3696 25.6951 22.7609 25.6516 23 25.869C23.2174 26.0646 23.0652 26.3907 22.913 26.5211C23.3261 26.6081 23.9348 26.4994 24.2174 26.0864C24.3696 26.0864 24.6957 26.1081 24.9348 26.3037C24.9348 25.8472 24.7391 25.5429 24.5217 25.3038C24.0217 24.8038 22.9783 24.782 22.3696 24.9124C21.1304 24.4559 20.6304 23.5211 20.6304 23.5211C21.587 23.0429 22.9783 20.9342 21.913 19.8038C20.7826 18.5646 17.8043 19.4994 17.5 19.6081Z" fill="#231815"/>
<path d="M21.1969 15.891C20.6969 16.5432 19.7838 16.9997 19.3491 17.0432L19.4577 16.7171C18.6317 17.3258 17.0664 17.2823 17.0664 17.2823C17.0664 17.2823 17.2404 16.9997 17.3273 16.8693C17.023 17.0432 16.2404 17.0867 15.9795 17.0215C15.5012 19.1737 13.7404 17.9997 13.0664 19.8693C13.0447 19.9345 13.023 19.9997 13.023 20.065C12.4795 20.4345 11.3708 21.065 10.6317 21.065C10.1751 21.065 9.84905 20.8041 9.7621 20.391C9.63166 19.8041 9.95775 18.9345 11.023 18.4345C11.3708 18.2606 11.7838 18.1084 12.2186 17.9345C13.8708 17.2606 15.7404 16.5215 15.7404 14.891C15.7404 13.478 14.6969 13.0432 14.1534 13.0215C13.1534 13.0215 12.523 14.1737 11.3925 13.0432C11.3273 13.4128 11.3925 13.8476 11.8056 14.1302L11.523 14.1737C11.523 14.1737 12.8273 15.8476 14.8708 14.0432C15.023 14.2389 15.1317 14.4997 15.1317 14.891C15.1317 16.0867 13.4795 16.7606 12.0012 17.3693C11.5664 17.5432 11.1534 17.7171 10.7838 17.891C9.43601 18.5432 9.00123 19.7171 9.19688 20.5432C9.34905 21.2389 9.93601 21.6954 10.6751 21.6954C11.4795 21.6954 12.436 21.1954 13.0447 20.8041C13.1534 21.3258 13.436 21.7606 13.7186 22.0432C12.8491 23.0432 11.6751 23.0215 11.2621 22.891C11.1969 23.4563 11.6751 23.8476 11.8925 23.9997L11.5664 24.1084C12.9577 26.0215 15.4795 26.4128 15.6751 26.5215C15.8708 26.6302 15.5882 26.9345 15.4795 27.0215C15.9577 27.1737 16.6751 27.065 17.1534 26.6954C17.4143 26.6954 17.7404 26.8693 17.9143 27.0432C17.936 26.9997 18.1099 26.5432 17.6969 26.1302C17.1099 25.5215 15.8708 25.7823 15.8708 25.7823C15.8708 25.7823 13.023 24.8258 14.1534 23.3041C14.1534 23.3041 17.5664 23.8258 17.9143 22.1737C18.2186 20.6519 16.6317 19.4345 16.4577 19.2606C20.6317 19.2389 21.0882 16.2606 21.1969 15.891Z" fill="#231815"/>
<path d="M19.2181 11.0206C19.9355 10.6076 20.6529 10.9771 20.6529 10.9771C20.6963 11.238 20.5007 11.3684 20.5007 11.3684L20.5442 11.4554C20.8485 11.2815 21.6746 10.4337 21.6311 9.9554C21.5876 9.49888 20.1746 9.3467 20.1746 9.3467C20.1746 9.3467 19.8268 8.99888 19.0442 8.89018C18.2181 8.78149 17.6529 9.12931 17.6529 9.12931C17.6529 9.12931 17.3702 9.04235 16.9355 9.04235C16.4572 9.04235 16.1094 9.30322 16.1094 9.30322C16.3268 9.80322 16.9137 10.1945 17.8485 10.1076C17.7833 10.4119 17.6746 10.9771 18.0659 11.5424C18.4789 12.151 19.4137 12.2163 19.6311 12.2597C19.8485 12.3032 20.0224 12.5424 20.1963 12.5424C20.5224 12.5424 21.0659 11.7163 21.0659 11.7163L21.0007 11.6293C20.2833 11.9554 19.6094 11.7597 19.2181 11.0206ZM18.6963 9.56409C18.9572 9.62931 19.3485 9.67279 19.7181 9.71627L19.2833 10.1076C19.0876 9.97713 19.0659 9.75974 18.6963 9.56409Z" fill="#231815"/>
</svg>
