<svg width="36" height="36" viewBox="0 0 36 36" fill="none" xmlns="http://www.w3.org/2000/svg">
<path d="M36 18.0004C36 27.9415 27.9416 36 18.0004 36C8.05924 36 0 27.9408 0 18.0004C0 8.06002 8.05923 0 17.9996 0C27.94 0 36 8.05923 36 18.0004Z" fill="#00AAAC"/>
<path d="M31.008 18.0001C31.008 25.1849 25.1829 31.0099 17.9981 31.0099C10.8133 31.0099 4.98828 25.1849 4.98828 18.0001C4.98828 10.8153 10.8133 4.99023 17.9981 4.99023C25.1829 4.99023 31.008 10.8145 31.008 18.0001Z" fill="#F59C23"/>
<path d="M17.9996 30.4755C11.1099 30.4755 5.52439 24.89 5.52439 18.0004C5.52439 11.1107 11.1099 5.52517 17.9996 5.52517C24.8893 5.52517 30.4748 11.1107 30.4748 18.0004C30.4748 24.89 24.89 30.4755 17.9996 30.4755ZM17.9996 4.27734C10.421 4.27734 4.27734 10.421 4.27734 17.9996C4.27734 25.5781 10.421 31.7226 17.9996 31.7226C25.5781 31.7226 31.7218 25.5789 31.7218 18.0004C31.7218 10.4218 25.5789 4.27734 17.9996 4.27734Z" fill="white"/>
<path d="M19.7714 18.5498C18.9917 19.4712 18.3764 20.5578 18.0014 21.743C17.6264 20.5578 17.0111 19.472 16.2314 18.5498C16.2275 18.5451 16.2228 18.5397 16.2189 18.535H18.0014H19.7839C19.78 18.5397 19.7753 18.5444 19.7714 18.5498ZM18.0022 16.6335C17.0691 16.6335 16.1297 16.657 15.1918 16.7031C14.7824 16.1599 14.2885 15.6847 13.7295 15.2995C15.1402 15.1993 16.5649 15.1484 18.0022 15.1484C20.847 15.1484 23.6441 15.3481 26.3785 15.7332L26.5327 14.2685C23.7787 13.7159 20.9261 13.4254 18.003 13.4254C15.0799 13.4254 12.2265 13.7159 9.47326 14.2685L9.62748 15.7332C10.3101 15.6369 10.9967 15.5524 11.6871 15.4796C11.81 15.4655 11.9086 15.4984 11.9634 15.5226C12.6077 15.8052 13.1651 16.2491 13.5878 16.8041C11.8343 16.9388 10.0933 17.1517 8.39844 17.4414L8.55814 18.9593C9.91713 18.8411 11.5799 18.7166 11.9306 18.7095C13.9229 18.6704 15.5762 20.0372 16.0529 21.9771C16.3825 23.3627 16.208 25.1522 16.1618 26.0196H18.0038H19.8458C19.7996 25.1522 19.625 23.3619 19.9546 21.9771C20.4313 20.038 22.0854 18.6704 24.077 18.7095C24.4277 18.7166 26.0904 18.8418 27.4494 18.9593L27.6091 17.4414C24.4903 16.909 21.2157 16.6343 18.0022 16.6335ZM18.0022 10.6934C15.9363 10.6934 13.9221 10.911 11.9791 11.3243L12.1208 12.6716C14.0395 12.3858 16.0036 12.2379 18.0022 12.2379C20.0008 12.2379 21.9641 12.3858 23.8836 12.6716L24.0253 11.3243C22.0823 10.911 20.0673 10.6934 18.0022 10.6934Z" fill="#010202"/>
</svg>
