<svg width="36" height="36" viewBox="0 0 36 36" fill="none" xmlns="http://www.w3.org/2000/svg">
<circle cx="18" cy="18" r="18" fill="#442359"/>
<path d="M20.8543 5.21498C20.1898 5.05863 19.8184 5 19.6425 5C19.2712 5 18.8999 5.3127 18.8999 5.70358V15.202C16.8087 15.1433 14.952 15.2215 12.8608 15.5147C12.8608 15.5147 12.8412 6.05538 12.8412 5.95766C12.8412 5.68404 12.5481 5.4886 11.4341 5.21498C10.7696 5.05863 10.3982 5 10.2223 5C9.85101 5 9.47968 5.3127 9.47968 5.70358V16.1792C9.24515 16.2378 8.18977 16.4723 7.58391 16.6482C6.97805 16.8436 6.89987 17.2736 7.09531 17.8795C7.40801 18.8567 8.50248 20.0293 9.14743 19.7557C9.30378 19.6971 9.47968 19.6384 9.47968 19.6384C9.47968 22.1987 9.49922 23.9967 9.49922 23.9967V28.0228C9.49922 28.2964 9.59694 28.4919 10.7109 28.7655C11.3754 28.9218 11.9422 28.9805 12.1181 28.9805C12.4894 28.9805 12.8412 28.6678 12.8412 28.2769V18.6417C15.3429 18.0554 17.2973 17.899 18.8803 17.7818V28.0228C18.8803 28.2964 18.978 28.4919 20.1116 28.7655C20.7761 28.9218 21.3429 29 21.5188 29C21.8901 29 22.2419 28.6873 22.2419 28.2964V5.95766C22.281 5.68404 21.9878 5.4886 20.8543 5.21498Z" fill="white"/>
<path d="M28.0329 26.0179C27.2145 25.8856 26.4327 26.5029 26.2739 27.3076C26.1151 28.1122 26.6526 28.8618 27.471 28.983C28.2772 29.1043 29.0712 28.5642 29.2178 27.7595C29.3766 26.9659 28.8513 26.1502 28.0329 26.0179Z" fill="#F05B24"/>
</svg>
