<svg width="36" height="36" viewBox="0 0 36 36" fill="none" xmlns="http://www.w3.org/2000/svg">
<circle cx="18" cy="18" r="18" fill="black"/>
<mask id="mask0_2670_77437" style="mask-type:luminance" maskUnits="userSpaceOnUse" x="8" y="6" width="20" height="24">
<path d="M8 6H27.6364V30H8V6Z" fill="white"/>
</mask>
<g mask="url(#mask0_2670_77437)">
<path fill-rule="evenodd" clip-rule="evenodd" d="M18.4652 10.1582C18.4652 10.1582 19.2812 10.0623 19.8571 10.0623C21.0573 10.0623 22.2092 10.4703 22.9053 11.0941L22.1852 11.9581C21.5612 11.2382 19.5452 10.2543 18.4652 10.1582ZM22.5484 14.0879C22.9324 14.0879 23.2924 14.2081 23.6283 14.4241L24.8525 15.192L25.9804 14.8561L27.6364 12.864L24.1083 9.336C22.7164 7.94407 20.7243 7.17592 18.5404 7.17592C18.524 7.17592 18.5076 7.17655 18.4913 7.17675C17.4715 6.43429 16.0052 6 14.4844 6C13.4762 6 12.5884 6.21601 12.5884 6.21601C12.8483 6.96862 13.3893 7.84611 13.8062 8.46141C10.3666 10.4446 8 14.516 8 19.2001C8 20.1359 8.09589 20.616 8.09589 20.616C8.09589 20.616 9.22833 19.4639 10.7162 19.4639C10.7162 21.7679 9.25236 24.0001 9.25236 24.0001C12.9724 24.0001 19.6204 25.7519 21.9963 27.3601C21.9963 26.256 19.6204 23.496 17.3404 22.0079C17.3404 22.0079 24.0365 24.9119 25.0445 30C25.0445 30 25.5485 28.944 25.5485 27.2159C25.5485 19.536 15.6363 19.752 15.5643 13.3681C15.5402 11.664 16.2363 10.608 16.2363 10.608C16.2363 10.608 15.9963 11.5441 15.9963 12.5999C15.9963 17.52 21.1565 17.736 24.3964 20.832L25.0923 17.064L23.7484 17.496L22.7644 17.2079C21.6844 16.896 21.0604 16.272 21.0604 15.4799C21.0604 14.6879 21.6844 14.0879 22.5484 14.0879Z" fill="white"/>
</g>
</svg>
