<svg width="36" height="36" viewBox="0 0 36 36" fill="none" xmlns="http://www.w3.org/2000/svg">
<circle cx="18" cy="18" r="18" fill="#052D3A"/>
<path d="M10 22.5384C10.9793 26.4555 14.6705 28 18.3995 28C22.1279 28 26.3465 26.4178 26.3465 22.0865C26.3465 20.3538 25.5554 18.7722 24.0493 17.7546C22.8819 16.9641 21.4501 16.7004 20.0566 16.4367L17.2698 15.9464C15.5749 15.6827 13.8423 15.2308 13.8423 13.1596C13.8423 11.0505 16.1772 10.3727 17.9099 10.3727C20.0944 10.3727 22.0536 11.2771 22.8063 13.3861L25.5183 12.8216C24.5761 9.28076 21.3745 8 17.9476 8C14.4446 8 10.7917 9.65713 10.7917 13.6121C10.7917 17.0018 13.4653 18.3581 16.4032 18.9233L19.5298 19.4878C21.1864 19.7887 23.2582 20.3538 23.2582 22.3879C23.2582 24.8362 20.6596 25.5518 18.6255 25.5518C16.3283 25.5518 13.2771 24.5725 12.863 21.9732L10 22.5384Z" fill="white"/>
</svg>
