<svg width="36" height="36" viewBox="0 0 36 36" fill="none" xmlns="http://www.w3.org/2000/svg">
<circle cx="18" cy="18" r="18" fill="#276FB3"/>
<path fill-rule="evenodd" clip-rule="evenodd" d="M11.2529 25.663C10.5653 25.2449 9.99691 24.6569 9.60236 23.9556C9.2078 23.2543 9.00037 22.4632 9 21.6585V9.12864C9 7.39771 10.4142 6 12.1434 6H24.6603C25.0717 5.99992 25.4791 6.0809 25.8593 6.23831C26.2394 6.39572 26.5848 6.62647 26.8757 6.91739C27.1666 7.20831 27.3974 7.5537 27.5548 7.93382C27.7122 8.31394 27.7931 8.72134 27.7931 9.13277L27.7872 21.6615C27.7878 22.4633 27.5825 23.2517 27.191 23.9514C26.7995 24.6512 26.235 25.2386 25.5514 25.6576L21.902 27.8757L16.9322 18.1123C17.5197 17.7197 18.2106 17.5105 18.9173 17.5114C19.3283 17.5114 19.7223 17.5839 20.0903 17.7095L21.9427 18.3353C22.5921 18.5511 23.289 18.5808 23.9544 18.4211C24.6198 18.2613 25.2271 17.9184 25.7077 17.4312L25.7089 11.9642C24.759 12.5108 23.682 12.7978 22.5861 12.7963C21.9463 12.7963 21.3282 12.7008 20.7461 12.5227L19.0311 11.9919C18.4929 11.8296 17.9337 11.7473 17.3715 11.7477C16.2375 11.748 15.1293 12.087 14.1892 12.7214L13.7965 11.9494L13.7935 10.9091C13.7952 10.8281 13.7778 10.7479 13.7427 10.6749C13.7075 10.602 13.6556 10.5383 13.5912 10.4892L11.51 8.91987C11.4641 8.88922 11.41 8.87318 11.3549 8.87387C11.2859 8.87387 11.2196 8.90125 11.1708 8.95001C11.1219 8.99876 11.0944 9.06491 11.0942 9.13394V11.7412C11.0942 11.9135 11.1803 12.0609 11.3089 12.1564L12.1534 12.7827L20.3268 28.8246L18.4024 30L11.2529 25.663ZM11.0983 15.3222L16.8767 26.662L12.3315 23.876C11.9537 23.6419 11.6419 23.3151 11.4257 22.9268C11.2095 22.5384 11.096 22.1013 11.096 21.6568L11.0983 15.3222ZM22.7466 24.9157L24.4616 23.8784C24.8414 23.6454 25.155 23.3187 25.3722 22.9297C25.5895 22.5407 25.7032 22.1023 25.7024 21.6568V20.0007C24.8982 20.4084 24.0091 20.6202 23.1075 20.6188C22.0603 20.6206 21.0327 20.3348 20.1369 19.7926L22.7466 24.9157ZM25.7059 9.30851C25.1734 9.90758 24.4794 10.3403 23.7071 10.5549C22.9348 10.7694 22.117 10.7566 21.3518 10.5181L19.635 9.99557C18.3408 9.60451 16.9676 9.55414 15.6483 9.84932C15.4665 9.4464 15.1854 9.09618 14.8315 8.8314L13.8395 8.08419L24.6579 8.08536C25.2341 8.08536 25.7036 8.55599 25.7036 9.13277V9.3209L25.7059 9.30851Z" fill="white"/>
</svg>
