<svg width="36" height="36" viewBox="0 0 36 36" fill="none" xmlns="http://www.w3.org/2000/svg">
<circle cx="18" cy="18" r="17.5" fill="white" stroke="#0473EA"/>
<path d="M21.7824 27.7072L13.3955 22.2473C13.3955 22.2473 12.3437 21.6425 12.1029 20.516C11.7647 18.9343 12.8796 17.5781 12.8796 17.5781L23.7644 24.6669C24.6041 25.2141 24.8331 26.3337 24.2934 27.1781C23.739 28.0456 22.5996 28.237 21.7821 27.7072H21.7824Z" fill="#38D200"/>
<path d="M13.8382 16.4067C13.8382 16.4067 12.5535 15.631 12.5535 13.8368C12.5535 12.0488 13.8377 11.2827 13.8377 11.2827L18.4227 8.28188C18.8262 8.02619 19.3143 7.9399 19.781 8.04171C20.2477 8.14352 20.6554 8.42523 20.9158 8.82573C21.1761 9.22623 21.2681 9.71323 21.1717 10.1811C21.0753 10.6489 20.7983 11.0599 20.4008 11.3249L16.5364 13.8412L23.1206 18.1294C23.1206 18.1294 24.3058 18.8084 24.5393 19.9546C24.8653 21.5537 23.7645 22.8713 23.7645 22.8713L13.8382 16.4067ZM13.8139 27.9952C14.2443 27.9952 14.5507 27.8586 14.8496 27.6648L17.0878 26.2068L14.8496 24.7492C14.5479 24.5549 14.2313 24.4189 13.8139 24.4189C13.5769 24.4155 13.3416 24.4592 13.1217 24.5476C12.9018 24.6359 12.7016 24.7671 12.5329 24.9335C12.3641 25.0998 12.2301 25.2981 12.1386 25.5168C12.0471 25.7354 12 25.97 12 26.207C12 26.444 12.0471 26.6786 12.1386 26.8973C12.2301 27.1159 12.3641 27.3142 12.5329 27.4806C12.7016 27.6469 12.9018 27.7781 13.1217 27.8665C13.3416 27.9548 13.5769 27.9986 13.8139 27.9952Z" fill="#0473EA"/>
<path d="M22.4696 12.0527C22.039 12.0527 21.7326 12.1893 21.4337 12.3829L19.1953 13.8407L21.4337 15.2985C21.7354 15.493 22.0522 15.629 22.4696 15.629C22.7044 15.629 22.9369 15.5828 23.1539 15.4929C23.3708 15.403 23.568 15.2713 23.734 15.1053C23.9 14.9392 24.0318 14.7421 24.1216 14.5252C24.2115 14.3082 24.2577 14.0757 24.2577 13.8409C24.2577 13.6061 24.2115 13.3735 24.1216 13.1566C24.0318 12.9396 23.9 12.7425 23.734 12.5765C23.568 12.4104 23.3708 12.2787 23.1539 12.1888C22.9369 12.099 22.7044 12.0527 22.4696 12.0527Z" fill="#38D200"/>
</svg>
